<svg height="272.23999" viewBox="0 0 1000.9733 272.23999" width="1000.9733" xmlns="http://www.w3.org/2000/svg"><g transform="matrix(.13333333 0 0 -.13333333 0 272.24)"><g fill="#231f20"><path d="m2694.79 1022.15c12.58 0 22.54 3.82 29.89 11.47 7.34 7.64 11.01 17.59 11.01 29.88 0 12.59-3.75 22.85-11.24 30.8-7.49 7.93-17.53 11.9-30.11 11.9h-39.11v-84.05zm-105.63 139.34h109.22c18.58 0 34.46-2.69 47.65-8.09 13.18-5.39 24.04-12.51 32.58-21.35s14.84-19.1 18.89-30.79c4.04-11.69 6.06-23.82 6.06-36.41 0-16.18-2.77-30.34-8.32-42.47-5.54-12.13-13.03-22.25-22.47-30.341-9.44-8.09-20.3-14.23-32.58-18.418-12.29-4.199-25.18-6.301-38.66-6.301h-46.3v-105.629h-66.07z"/><path d="m2950.53 910.691c8.09 0 15.29 1.637 21.58 4.938s11.61 7.641 15.96 13.043c4.34 5.387 7.56 11.527 9.66 18.418 2.09 6.898 3.14 14.082 3.14 21.582 0 7.488-1.05 14.668-3.14 21.578-2.1 6.879-5.32 13.03-9.66 18.42-4.35 5.4-9.67 9.66-15.96 12.81s-13.49 4.72-21.58 4.72-15.35-1.57-21.79-4.72c-6.45-3.15-11.77-7.41-15.96-12.81-4.2-5.39-7.42-11.541-9.66-18.42-2.26-6.91-3.38-14.09-3.38-21.578 0-7.5 1.12-14.684 3.38-21.582 2.24-6.891 5.46-13.031 9.66-18.418 4.19-5.402 9.51-9.742 15.96-13.043 6.44-3.301 13.7-4.938 21.79-4.938zm-113.26 57.981c0 15.867 2.76 30.707 8.31 44.498 5.54 13.77 13.26 25.84 23.15 36.18s21.8 18.43 35.73 24.27 29.29 8.77 46.07 8.77c16.48 0 31.69-2.93 45.63-8.77 13.93-5.84 25.84-13.93 35.73-24.27s17.6-22.41 23.15-36.18c5.54-13.791 8.31-28.631 8.31-44.498 0-15.883-2.77-30.723-8.31-44.5-5.55-13.793-13.26-25.852-23.15-36.184-9.89-10.34-21.8-18.5-35.73-24.5-13.94-5.988-29.15-8.976-45.63-8.976-16.78 0-32.14 2.988-46.07 8.976-13.93 6-25.84 14.16-35.73 24.5-9.89 10.332-17.61 22.391-23.15 36.184-5.55 13.777-8.31 28.617-8.31 44.5"/><path d="m3293.94 889.559c-8.7-9.598-20.09-17.829-34.16-24.719-14.1-6.891-31.02-10.328-50.8-10.328-17.08 0-32.59 2.847-46.52 8.527-13.93 5.691-25.84 13.551-35.73 23.59-9.89 10.043-17.61 21.961-23.15 35.75-5.55 13.781-8.32 28.762-8.32 44.941 0 16.18 2.77 31.309 8.32 45.4 5.54 14.08 13.41 26.29 23.6 36.63 10.18 10.34 22.32 18.43 36.4 24.27 14.09 5.84 29.52 8.77 46.3 8.77 18.58 0 35.06-3.31 49.44-9.9 14.39-6.59 26.08-14.83 35.06-24.72l-39.1-42.24c-3.9 4.49-9.37 9.05-16.41 13.7s-16.11 6.97-27.19 6.97c-8.39 0-15.73-1.57-22.03-4.72-6.29-3.15-11.61-7.35-15.95-12.58-4.35-5.24-7.65-11.322-9.89-18.201-2.25-6.898-3.37-13.937-3.37-21.14 0-7.18 1.12-14.297 3.37-21.34 2.24-7.047 5.46-13.34 9.66-18.879 4.2-5.551 9.51-9.961 15.96-13.262 6.44-3.297 14-4.937 22.7-4.937 10.48 0 19.33 2.16 26.52 6.507 7.19 4.352 13.03 9.063 17.53 14.161z"/><path d="m3516.43 889.559c-8.7-9.598-20.09-17.829-34.16-24.719-14.1-6.891-31.02-10.328-50.8-10.328-17.08 0-32.59 2.847-46.52 8.527-13.93 5.691-25.84 13.551-35.73 23.59-9.89 10.043-17.61 21.961-23.15 35.75-5.55 13.781-8.32 28.762-8.32 44.941 0 16.18 2.77 31.309 8.32 45.4 5.54 14.08 13.41 26.29 23.6 36.63 10.18 10.34 22.32 18.43 36.4 24.27 14.09 5.84 29.52 8.77 46.3 8.77 18.58 0 35.06-3.31 49.44-9.9 14.39-6.59 26.08-14.83 35.07-24.72l-39.11-42.24c-3.9 4.49-9.37 9.05-16.41 13.7s-16.11 6.97-27.19 6.97c-8.39 0-15.73-1.57-22.03-4.72-6.29-3.15-11.61-7.35-15.95-12.58-4.35-5.24-7.65-11.322-9.89-18.201-2.25-6.898-3.37-13.937-3.37-21.14 0-7.18 1.12-14.297 3.37-21.34 2.24-7.047 5.46-13.34 9.66-18.879 4.2-5.551 9.51-9.961 15.96-13.262 6.44-3.297 14-4.937 22.7-4.937 10.48 0 19.33 2.16 26.52 6.507 7.19 4.352 13.03 9.063 17.53 14.161z"/><path d="m3697.56 861.691v129.899l-94.39-129.899h-53.04v213.509h61.58v-125.411l91.24 125.411h56.19v-213.509z"/><path d="m3890.84 1170.93c0-6.89 1.87-12.81 5.62-17.75 3.75-4.95 9.96-7.42 18.66-7.42 8.38 0 14.53 2.47 18.42 7.42 3.89 4.94 5.99 10.86 6.29 17.75h46.75c0-9.89-1.87-18.81-5.61-26.74-3.75-7.95-8.85-14.61-15.29-20-6.44-5.4-14.01-9.6-22.7-12.59-8.69-3-17.98-4.5-27.86-4.5-10.5 0-20.08 1.58-28.77 4.72-8.69 3.15-16.18 7.49-22.47 13.04-6.3 5.54-11.17 12.2-14.61 20-3.45 7.79-5.18 16.48-5.18 26.07zm67.42-309.239v129.899l-94.38-129.899h-53.05v213.509h61.58v-125.411l91.25 125.411h56.18v-213.509z"/><path d="m4260.31 889.559c-8.7-9.598-20.08-17.829-34.16-24.719-14.09-6.891-31.01-10.328-50.79-10.328-17.08 0-32.59 2.847-46.52 8.527-13.94 5.691-25.85 13.551-35.73 23.59-9.9 10.043-17.61 21.961-23.16 35.75-5.55 13.781-8.31 28.762-8.31 44.941 0 16.18 2.76 31.309 8.31 45.4 5.55 14.08 13.41 26.29 23.6 36.63s22.32 18.43 36.41 24.27c14.08 5.84 29.51 8.77 46.3 8.77 18.57 0 35.06-3.31 49.44-9.9 14.39-6.59 26.07-14.83 35.06-24.72l-39.11-42.24c-3.9 4.49-9.36 9.05-16.41 13.7-7.04 4.65-16.1 6.97-27.18 6.97-8.4 0-15.74-1.57-22.02-4.72-6.3-3.15-11.63-7.35-15.96-12.58-4.36-5.24-7.65-11.322-9.89-18.201-2.25-6.898-3.37-13.937-3.37-21.14 0-7.18 1.12-14.297 3.37-21.34 2.24-7.047 5.45-13.34 9.66-18.879 4.19-5.551 9.51-9.961 15.96-13.262 6.44-3.297 14-4.937 22.7-4.937 10.48 0 19.32 2.16 26.51 6.507 7.2 4.352 13.04 9.063 17.54 14.161z"/><path d="m4357.39 861.691h-63.38v213.509h63.38v-79.11h19.33c7.79 0 13.86 2.09 18.21 6.29 4.34 4.2 8.61 10.18 12.8 17.97l29.22 54.85h66.08l-35.51-65.94c-10.79-20.03-23.98-32.588-39.55-37.67 9.58-3 17.6-7.731 24.04-14.18 6.44-6.469 12.81-15.25 19.1-26.351l40.46-69.368h-72.37l-32.81 57.981c-3.3 6-6.97 11.156-11.01 15.508-4.05 4.34-10.42 6.519-19.11 6.519h-18.88z"/><path d="m4666.64 956.988c-2.69.59-6.14 1.043-10.34 1.34-4.2.301-8.39.453-12.58.453-17.99 0-30.72-2.691-38.21-8.09-7.49-5.39-11.23-12.882-11.23-22.472 0-17.981 10.48-26.981 31.45-26.981 5.1 0 10.12.832 15.06 2.481 4.95 1.64 9.29 3.972 13.04 6.972 3.74 2.981 6.81 6.731 9.22 11.239 2.39 4.492 3.59 9.718 3.59 15.73zm1.8-95.297-1.8 19.778c-7.19-8.391-16.26-14.84-27.2-19.328-10.93-4.493-23.14-6.743-36.63-6.743-7.49 0-15.36 1.051-23.59 3.153-8.25 2.097-15.89 5.679-22.93 10.777-7.04 5.102-12.88 11.91-17.53 20.461-4.65 8.531-6.96 19.102-6.96 31.691 0 12.579 2.47 23.739 7.41 33.481 4.95 9.73 11.76 17.828 20.46 24.269 8.68 6.45 18.94 11.391 30.78 14.84 11.84 3.43 24.65 5.16 38.44 5.16 7.48 0 14.98-.218 22.47-.671 7.49-.45 12.59-.829 15.28-1.129v4.5c0 5.4-1.12 10.04-3.37 13.93-2.24 3.89-5.24 7.12-8.99 9.67-3.75 2.53-8.02 4.34-12.82 5.39-4.79 1.05-9.88 1.57-15.27 1.57-14.38 0-26.3-1.8-35.74-5.39-9.43-3.6-17.46-7.64-24.04-12.14l-26.53 39.56c4.5 3.29 9.67 6.58 15.51 9.88 5.85 3.3 12.59 6.3 20.23 8.99 7.64 2.7 16.33 4.87 26.07 6.52 9.74 1.64 20.9 2.48 33.49 2.48 32.06 0 55.73-8.77 71.01-26.3s22.93-40.98 22.93-70.34v-124.059z"/><path d="m4900.82 1028h-32.81c-9.3 0-16.56-2.25-21.81-6.75-5.24-4.49-7.86-11.08-7.86-19.77 0-9.589 3.07-16.332 9.22-20.23 6.13-3.891 14.45-5.84 24.94-5.84h28.32zm0-166.309v67.418h-21.58c-6.59 0-11.76-1.418-15.5-4.257-3.76-2.852-7.58-8.18-11.46-15.961l-24.28-47.2h-67.87l31.46 54.387c5.1 8.692 9.89 15.203 14.39 19.551 4.49 4.34 10.18 7.711 17.08 10.121-6.29 1.789-12.29 4.41-17.98 7.871-5.7 3.43-10.79 7.777-15.29 13.02-4.49 5.25-8.08 11.308-10.79 18.211-2.69 6.886-4.04 14.668-4.04 23.378 0 10.78 2.17 20.36 6.52 28.76 4.34 8.38 10.11 15.42 17.31 21.12 7.19 5.69 15.51 9.96 24.94 12.81 9.44 2.85 19.25 4.28 29.44 4.28h111.03v-213.509z"/><path d="m5220.36 956.988c-2.69.59-6.14 1.043-10.34 1.34-4.2.301-8.39.453-12.58.453-17.99 0-30.72-2.691-38.21-8.09-7.49-5.39-11.23-12.882-11.23-22.472 0-17.981 10.48-26.981 31.45-26.981 5.1 0 10.12.832 15.06 2.481 4.95 1.64 9.29 3.972 13.04 6.972 3.74 2.981 6.82 6.731 9.22 11.239 2.39 4.492 3.59 9.718 3.59 15.73zm1.8-95.297-1.8 19.778c-7.19-8.391-16.26-14.84-27.2-19.328-10.93-4.493-23.14-6.743-36.63-6.743-7.49 0-15.36 1.051-23.59 3.153-8.25 2.097-15.89 5.679-22.93 10.777-7.04 5.102-12.88 11.91-17.53 20.461-4.65 8.531-6.96 19.102-6.96 31.691 0 12.579 2.47 23.739 7.41 33.481 4.95 9.73 11.76 17.828 20.46 24.269 8.68 6.45 18.94 11.391 30.78 14.84 11.84 3.43 24.65 5.16 38.44 5.16 7.48 0 14.98-.218 22.47-.671 7.49-.45 12.59-.829 15.28-1.129v4.5c0 5.4-1.12 10.04-3.37 13.93-2.24 3.89-5.24 7.12-8.99 9.67-3.75 2.53-8.02 4.34-12.81 5.39-4.8 1.05-9.89 1.57-15.28 1.57-14.38 0-26.3-1.8-35.74-5.39-9.43-3.6-17.45-7.64-24.04-12.14l-26.53 39.56c4.51 3.29 9.67 6.58 15.51 9.88 5.85 3.3 12.59 6.3 20.23 8.99 7.64 2.7 16.33 4.87 26.07 6.52 9.74 1.64 20.9 2.48 33.49 2.48 32.06 0 55.73-8.77 71.01-26.3 15.29-17.53 22.93-40.98 22.93-70.34v-124.059z"/><path d="m5521.96 889.559c-8.7-9.598-20.08-17.829-34.16-24.719-14.09-6.891-31.01-10.328-50.79-10.328-17.08 0-32.59 2.847-46.52 8.527-13.94 5.691-25.85 13.551-35.73 23.59-9.9 10.043-17.61 21.961-23.16 35.75-5.55 13.781-8.31 28.762-8.31 44.941 0 16.18 2.76 31.309 8.31 45.4 5.55 14.08 13.41 26.29 23.61 36.63 10.18 10.34 22.31 18.43 36.4 24.27 14.08 5.84 29.51 8.77 46.3 8.77 18.57 0 35.06-3.31 49.44-9.9 14.39-6.59 26.07-14.83 35.06-24.72l-39.11-42.24c-3.9 4.49-9.36 9.05-16.41 13.7-7.04 4.65-16.1 6.97-27.18 6.97-8.4 0-15.74-1.57-22.02-4.72-6.3-3.15-11.63-7.35-15.96-12.58-4.36-5.24-7.65-11.322-9.89-18.201-2.25-6.898-3.37-13.937-3.37-21.14 0-7.18 1.12-14.297 3.37-21.34 2.24-7.047 5.45-13.34 9.66-18.879 4.19-5.551 9.51-9.961 15.96-13.262 6.44-3.297 14-4.937 22.7-4.937 10.48 0 19.32 2.16 26.51 6.507 7.2 4.352 13.04 9.063 17.54 14.161z"/><path d="m5744.45 889.559c-8.7-9.598-20.07-17.829-34.16-24.719-14.09-6.891-31.01-10.328-50.79-10.328-17.08 0-32.59 2.847-46.52 8.527-13.94 5.691-25.85 13.551-35.73 23.59-9.9 10.043-17.61 21.961-23.16 35.75-5.55 13.781-8.31 28.762-8.31 44.941 0 16.18 2.76 31.309 8.31 45.4 5.55 14.08 13.41 26.29 23.61 36.63 10.18 10.34 22.31 18.43 36.4 24.27 14.08 5.84 29.51 8.77 46.3 8.77 18.57 0 35.06-3.31 49.44-9.9 14.39-6.59 26.07-14.83 35.06-24.72l-39.11-42.24c-3.9 4.49-9.36 9.05-16.41 13.7-7.04 4.65-16.1 6.97-27.18 6.97-8.4 0-15.74-1.57-22.02-4.72-6.3-3.15-11.63-7.35-15.96-12.58-4.36-5.24-7.65-11.322-9.89-18.201-2.25-6.898-3.37-13.937-3.37-21.14 0-7.18 1.12-14.297 3.37-21.34 2.24-7.047 5.46-13.34 9.66-18.879 4.19-5.551 9.51-9.961 15.96-13.262 6.44-3.297 14.01-4.937 22.7-4.937 10.48 0 19.32 2.16 26.51 6.507 7.2 4.352 13.04 9.063 17.54 14.161z"/><path d="m5881.54 910.691c8.09 0 15.29 1.637 21.58 4.938 6.28 3.301 11.61 7.641 15.95 13.043 4.34 5.387 7.56 11.527 9.67 18.418 2.09 6.898 3.14 14.082 3.14 21.582 0 7.488-1.05 14.668-3.14 21.578-2.11 6.879-5.33 13.03-9.67 18.42-4.34 5.4-9.67 9.66-15.95 12.81-6.29 3.15-13.49 4.72-21.58 4.72s-15.36-1.57-21.8-4.72c-6.45-3.15-11.76-7.41-15.96-12.81-4.2-5.39-7.41-11.541-9.66-18.42-2.24-6.91-3.37-14.09-3.37-21.578 0-7.5 1.13-14.684 3.37-21.582 2.25-6.891 5.46-13.031 9.66-18.418 4.2-5.402 9.51-9.742 15.96-13.043 6.44-3.301 13.71-4.938 21.8-4.938zm-113.27 57.981c0 15.867 2.77 30.707 8.31 44.498 5.55 13.77 13.26 25.84 23.16 36.18 9.88 10.34 21.79 18.43 35.73 24.27 13.93 5.84 29.29 8.77 46.07 8.77 16.48 0 31.69-2.93 45.62-8.77s25.85-13.93 35.74-24.27c9.88-10.34 17.6-22.41 23.14-36.18 5.54-13.791 8.32-28.631 8.32-44.498 0-15.883-2.78-30.723-8.32-44.5-5.54-13.793-13.26-25.852-23.14-36.184-9.89-10.34-21.81-18.5-35.74-24.5-13.93-5.988-29.14-8.976-45.62-8.976-16.78 0-32.14 2.988-46.07 8.976-13.94 6-25.85 14.16-35.73 24.5-9.9 10.332-17.61 22.391-23.16 36.184-5.54 13.777-8.31 28.617-8.31 44.5"/><path d="m6263.59 916.98v-111.019h-57.08v55.73h-170.36v213.509h64.73v-158.22h71.02v158.22h64.73v-158.22z"/><path d="m6447.42 861.691v129.899l-94.38-129.899h-53.05v213.509h61.58v-125.411l91.25 125.411h56.18v-213.509z"/><path d="m6685.21 956.988c-2.7.59-6.15 1.043-10.35 1.34-4.2.301-8.39.453-12.57.453-17.99 0-30.73-2.691-38.22-8.09-7.49-5.39-11.23-12.882-11.23-22.472 0-17.981 10.48-26.981 31.46-26.981 5.09 0 10.11.832 15.06 2.481 4.95 1.64 9.28 3.972 13.03 6.972 3.74 2.981 6.82 6.731 9.22 11.239 2.39 4.492 3.6 9.718 3.6 15.73zm1.79-95.297-1.79 19.778c-7.19-8.391-16.26-14.84-27.2-19.328-10.94-4.493-23.15-6.743-36.63-6.743-7.49 0-15.36 1.051-23.6 3.153-8.25 2.097-15.89 5.679-22.93 10.777-7.04 5.102-12.88 11.91-17.53 20.461-4.64 8.531-6.96 19.102-6.96 31.691 0 12.579 2.47 23.739 7.41 33.481 4.95 9.73 11.76 17.828 20.46 24.269 8.68 6.45 18.95 11.391 30.78 14.84 11.84 3.43 24.65 5.16 38.44 5.16 7.48 0 14.98-.218 22.47-.671 7.49-.45 12.59-.829 15.29-1.129v4.5c0 5.4-1.13 10.04-3.37 13.93-2.25 3.89-5.25 7.12-9 9.67-3.75 2.53-8.02 4.34-12.81 5.39-4.8 1.05-9.88 1.57-15.27 1.57-14.39 0-26.3-1.8-35.75-5.39-9.43-3.6-17.45-7.64-24.04-12.14l-26.52 39.56c4.5 3.29 9.67 6.58 15.51 9.88s12.58 6.3 20.22 8.99c7.65 2.7 16.34 4.87 26.07 6.52 9.74 1.64 20.9 2.48 33.49 2.48 32.06 0 55.73-8.77 71.02-26.3 15.28-17.53 22.93-40.98 22.93-70.34v-124.059z"/><path d="m7025.46 916.98v-111.019h-57.08v55.73h-170.36v213.509h64.72v-158.22h71.03v158.22h64.73v-158.22z"/><path d="m7209.29 861.691v129.899l-94.39-129.899h-53.04v213.509h61.58v-125.411l91.25 125.411h56.18v-213.509z"/><path d="m7443.93 1028h-32.82c-9.29 0-16.56-2.25-21.8-6.75-5.25-4.49-7.86-11.08-7.86-19.77 0-9.589 3.06-16.332 9.21-20.23 6.14-3.891 14.46-5.84 24.95-5.84h28.32zm0-166.309v67.418h-21.59c-6.59 0-11.75-1.418-15.49-4.257-3.76-2.852-7.58-8.18-11.47-15.961l-24.28-47.2h-67.87l31.47 54.387c5.09 8.692 9.89 15.203 14.38 19.551 4.49 4.34 10.19 7.711 17.08 10.121-6.29 1.789-12.28 4.41-17.98 7.871-5.69 3.43-10.79 7.777-15.28 13.02-4.49 5.25-8.09 11.308-10.79 18.211-2.7 6.886-4.04 14.668-4.04 23.378 0 10.78 2.16 20.36 6.52 28.76 4.34 8.38 10.11 15.42 17.3 21.12 7.19 5.69 15.51 9.96 24.95 12.81s19.24 4.28 29.44 4.28h111.02v-213.509z"/><path d="m2789.63 647.172v-213.5h-64.73v158.219h-75.96v-158.219h-64.73v213.5z"/><path d="m2944.69 482.66c8.09 0 15.29 1.641 21.58 4.942 6.29 3.296 11.61 7.648 15.96 13.039 4.34 5.39 7.56 11.531 9.66 18.429 2.09 6.891 3.14 14.078 3.14 21.571 0 7.488-1.05 14.679-3.14 21.578-2.1 6.883-5.32 13.043-9.66 18.429-4.35 5.391-9.67 9.661-15.96 12.813-6.29 3.141-13.49 4.719-21.58 4.719s-15.35-1.578-21.79-4.719c-6.45-3.152-11.77-7.422-15.96-12.813-4.2-5.386-7.42-11.546-9.66-18.429-2.26-6.899-3.38-14.09-3.38-21.578 0-7.493 1.12-14.68 3.38-21.571 2.24-6.898 5.46-13.039 9.66-18.429 4.19-5.391 9.51-9.743 15.96-13.039 6.44-3.301 13.7-4.942 21.79-4.942zm-113.26 57.981c0 15.879 2.76 30.711 8.31 44.5 5.54 13.781 13.26 25.847 23.15 36.179 9.89 10.34 21.8 18.43 35.73 24.282 13.93 5.839 29.29 8.757 46.07 8.757 16.48 0 31.69-2.918 45.63-8.757 13.93-5.852 25.84-13.942 35.73-24.282 9.89-10.332 17.6-22.398 23.15-36.179 5.54-13.789 8.31-28.621 8.31-44.5s-2.77-30.719-8.31-44.493c-5.55-13.789-13.26-25.847-23.15-36.187s-21.8-18.5-35.73-24.5c-13.94-5.981-29.15-8.981-45.63-8.981-16.78 0-32.14 3-46.07 8.981-13.93 6-25.84 14.16-35.73 24.5s-17.61 22.398-23.15 36.187c-5.55 13.774-8.31 28.614-8.31 44.493"/><path d="m3282.87 481.309-41.81 76.859-5.39-124.496h-58.43l10.34 213.5h58.43l53.49-100.231 53.94 100.231h59.33l10.34-213.5h-61.13l-5.85 124.957-41.35-77.32z"/><path d="m3613.68 562.672c-.6 4.777-1.65 9.656-3.14 14.609-1.51 4.938-3.9 9.43-7.2 13.481-3.3 4.047-7.57 7.258-12.81 9.66-5.24 2.398-11.76 3.598-19.55 3.598-13.79 0-24.5-3.821-32.14-11.461-7.64-7.637-12.66-17.61-15.06-29.887zm-32.36-85.402c8.09 0 15.43.742 22.02 2.242s12.59 3.297 17.98 5.398c5.4 2.09 9.96 4.262 13.71 6.512 3.74 2.25 6.67 4.277 8.77 6.066l26.52-40.898c-2.1-1.512-5.62-3.981-10.56-7.418-4.95-3.442-11.24-6.813-18.89-10.113-7.64-3.297-16.7-6.219-27.19-8.758-10.49-2.551-22.18-3.821-35.06-3.821-18.28 0-34.68 2.77-49.22 8.309s-26.82 13.332-36.86 23.371-17.68 21.949-22.92 35.738c-5.24 13.782-7.86 28.911-7.86 45.391 0 15.582 2.47 30.41 7.41 44.5 4.95 14.082 12.06 26.301 21.35 36.633 9.29 10.34 20.68 18.578 34.16 24.726 13.49 6.133 28.77 9.211 45.85 9.211s32.06-3 44.95-8.988c12.88-5.992 23.74-14.383 32.59-25.172 8.83-10.781 15.5-23.668 20-38.648 4.49-14.992 6.74-31.473 6.74-49.449v-10.793h-151.03c5.4-29.36 24.57-44.039 57.54-44.039"/><path d="m3924.27 647.172v-213.5h-64.73v80h-79.56v-80h-64.72v213.5h64.72v-79.113h79.56v79.113z"/><path d="m4079.35 482.66c8.08 0 15.28 1.641 21.57 4.942 6.29 3.296 11.61 7.648 15.96 13.039 4.33 5.39 7.55 11.531 9.66 18.429 2.09 6.891 3.15 14.078 3.15 21.571 0 7.488-1.06 14.679-3.15 21.578-2.11 6.883-5.33 13.043-9.66 18.429-4.35 5.391-9.67 9.661-15.96 12.813-6.29 3.141-13.49 4.719-21.57 4.719-8.1 0-15.37-1.578-21.81-4.719-6.45-3.152-11.76-7.422-15.96-12.813-4.2-5.386-7.41-11.546-9.66-18.429-2.24-6.899-3.37-14.09-3.37-21.578 0-7.493 1.13-14.68 3.37-21.571 2.25-6.898 5.46-13.039 9.66-18.429 4.2-5.391 9.51-9.743 15.96-13.039 6.44-3.301 13.71-4.942 21.81-4.942zm-113.28 57.981c0 15.879 2.77 30.711 8.31 44.5 5.55 13.781 13.27 25.847 23.16 36.179 9.88 10.34 21.8 18.43 35.73 24.282 13.94 5.839 29.29 8.757 46.08 8.757 16.47 0 31.69-2.918 45.61-8.757 13.94-5.852 25.85-13.942 35.74-24.282 9.89-10.332 17.6-22.398 23.15-36.179 5.53-13.789 8.31-28.621 8.31-44.5s-2.78-30.719-8.31-44.493c-5.55-13.789-13.26-25.847-23.15-36.187s-21.8-18.5-35.74-24.5c-13.92-5.981-29.14-8.981-45.61-8.981-16.79 0-32.14 3-46.08 8.981-13.93 6-25.85 14.16-35.73 24.5-9.89 10.34-17.61 22.398-23.16 36.187-5.54 13.774-8.31 28.614-8.31 44.493"/><path d="m4439.38 647.172v-213.5h-64.73v158.219h-75.97v-158.219h-64.72v213.5z"/><path d="m4615.56 528.961c-2.7.59-6.15 1.039-10.35 1.348-4.19.293-8.38.453-12.57.453-17.99 0-30.73-2.703-38.22-8.102-7.49-5.39-11.23-12.879-11.23-22.469 0-17.98 10.48-26.972 31.46-26.972 5.1 0 10.12.832 15.06 2.48 4.95 1.641 9.28 3.961 13.03 6.961 3.74 2.988 6.82 6.738 9.22 11.238 2.4 4.493 3.6 9.731 3.6 15.731zm1.79-95.289-1.79 19.769c-7.19-8.39-16.26-14.832-27.2-19.332-10.94-4.488-23.15-6.73-36.63-6.73-7.49 0-15.36 1.043-23.6 3.141-8.25 2.101-15.88 5.679-22.92 10.781-7.05 5.097-12.89 11.918-17.53 20.461-4.65 8.539-6.97 19.097-6.97 31.687 0 12.582 2.47 23.742 7.42 33.492 4.95 9.719 11.75 17.821 20.45 24.258 8.69 6.449 18.95 11.391 30.79 14.84 11.83 3.441 24.64 5.16 38.43 5.16 7.48 0 14.98-.219 22.47-.668 7.49-.453 12.59-.832 15.29-1.121v4.488c0 5.403-1.13 10.043-3.37 13.942-2.25 3.89-5.25 7.109-9 9.66-3.75 2.539-8.01 4.34-12.81 5.391-4.79 1.05-9.88 1.578-15.27 1.578-14.39 0-26.3-1.797-35.74-5.391-9.44-3.598-17.46-7.648-24.05-12.137l-26.52 39.559c4.5 3.289 9.67 6.578 15.51 9.879 5.85 3.293 12.58 6.301 20.22 8.992 7.65 2.699 16.34 4.867 26.08 6.52 9.73 1.64 20.89 2.468 33.48 2.468 32.06 0 55.73-8.757 71.02-26.289 15.28-17.531 22.93-40.992 22.93-70.351v-124.047z"/><path d="m4741.87 400.398c3.59-2.687 7.56-5.078 11.91-7.179 4.34-2.098 9.06-3.16 14.16-3.16 6.88 0 12.66 2.101 17.3 6.3 4.64 4.2 9.07 11.68 13.27 22.469l6.28 17.082-96.19 211.262h73.72l52.59-135.742 47.65 135.742h68.77l-93.95-230.582c-4.79-11.988-9.66-22.852-14.61-32.59-4.94-9.738-10.63-17.98-17.08-24.719-6.44-6.75-13.93-11.91-22.47-15.511-8.54-3.598-18.81-5.399-30.79-5.399-11.39 0-21.73 1.508-31.01 4.5-9.29 3-17.84 7.348-25.62 13.027z"/><path d="m5019.65 564.922h44.04c7.49 0 13.71 1.488 18.65 4.488 4.95 3 7.43 7.942 7.43 14.828 0 7.492-2.92 12.883-8.77 16.184-5.84 3.289-14.01 4.937-24.5 4.937-13.19 0-24.72-2.238-34.61-6.73-9.89-4.5-18.28-9.75-25.17-15.738l-27.86 36.859c9.88 9.289 22.69 17.371 38.43 24.281 15.73 6.879 34.22 10.328 55.5 10.328 13.19 0 25.25-1.5 36.18-4.48 10.94-3 20.39-7.18 28.32-12.559 7.94-5.39 14.09-11.98 18.43-19.75 4.35-7.769 6.53-16.59 6.53-26.461 0-10.769-2.86-20.558-8.55-29.39-5.69-8.821-13.79-15.321-24.27-19.5 11.99-3.598 21.35-9.981 28.09-19.141 6.75-9.156 10.12-20.047 10.12-32.656 0-10.813-2.41-20.192-7.19-28.141-4.81-7.961-11.4-14.57-19.79-19.832-8.38-5.25-18.28-9.219-29.65-11.918-11.4-2.703-23.69-4.051-36.87-4.051-21.57 0-40.98 3.301-58.2 9.879-17.24 6.59-31.1 14.68-41.58 24.282l27.87 38.199c6.89-5.692 15.73-10.949 26.52-15.731 10.78-4.8 23.66-7.187 38.65-7.187 11.09 0 20 1.637 26.75 4.937 6.74 3.289 10.11 9.129 10.11 17.532 0 7.781-2.78 13.039-8.31 15.73-5.56 2.699-12.52 4.047-20.91 4.047h-45.39z"/><path d="m5339.67 562.672c-.61 4.777-1.65 9.656-3.15 14.609-1.5 4.938-3.89 9.43-7.19 13.481-3.3 4.047-7.57 7.258-12.81 9.66-5.25 2.398-11.76 3.598-19.56 3.598-13.78 0-24.49-3.821-32.14-11.461-7.63-7.637-12.65-17.61-15.04-29.887zm-32.37-85.402c8.1 0 15.43.742 22.03 2.242 6.59 1.5 12.58 3.297 17.97 5.398 5.41 2.09 9.97 4.262 13.72 6.512s6.67 4.277 8.77 6.066l26.51-40.898c-2.1-1.512-5.62-3.981-10.56-7.418-4.95-3.442-11.24-6.813-18.87-10.113-7.65-3.297-16.71-6.219-27.2-8.758-10.49-2.551-22.18-3.821-35.06-3.821-18.28 0-34.69 2.77-49.22 8.309-14.54 5.539-26.83 13.332-36.85 23.371-10.05 10.039-17.69 21.949-22.93 35.738-5.25 13.782-7.87 28.911-7.87 45.391 0 15.582 2.47 30.41 7.42 44.5 4.95 14.082 12.06 26.301 21.35 36.633 9.28 10.34 20.68 18.578 34.16 24.726 13.48 6.133 28.76 9.211 45.84 9.211s32.06-3 44.95-8.988c12.89-5.992 23.75-14.383 32.59-25.172 8.84-10.781 15.51-23.668 20-38.648 4.5-14.992 6.75-31.473 6.75-49.449v-10.793h-151.02c5.39-29.36 24.56-44.039 57.52-44.039"/></g><path d="m1219.22 726.039 287.96 625.951-342.44 689.81-342.447-689.81 242.087-526.22 100.36-218.141zm584.63-400.617 425.98 208.558-425.97 208.551-552.02-208.551 284.4-107.449zm-72.32-313.3439-138.02 327.0119-369.49 139.59 159.23-346.602zm-1731.53 1595.1019 320.273-721.258 464.606-175.531 320.521-121.09-339.834 738.669zm525.621-864.649-425.9765-208.551 425.9805-208.558 491.555 185.707 60.46 22.851zm72.317-730.4529 348.296 119.9999 159.236 346.602-369.493-139.59zm563.302-12.0781 98.5 229.641-101.5 237.968-98.32-249.211zm545.29 771.57 302.68 114.352 320.27 721.258-765.57-279.21-258-560.779-81.84-177.89z" fill="#883027" fill-rule="evenodd"/><path d="m1507.18 1351.99-342.44 689.81v-1434.171z" fill="#a93628" fill-rule="evenodd"/><path d="m2009.21 885.922-785.14-296.621 1105.41 1017.879z" fill="#a93628" fill-rule="evenodd"/><path d="m1803.86 742.531 425.97-208.551h-977.99z" fill="#a93628" fill-rule="evenodd"/><path d="m1593.51 339.09-369.49 139.59 507.51-466.6019z" fill="#a93628" fill-rule="evenodd"/><path d="m1158.24 467.609 101.5-237.968-98.5-229.641z" fill="#a93628" fill-rule="evenodd"/><path d="m946.234 132.078-348.296-119.9999 507.532 466.6019z" fill="#a93628" fill-rule="evenodd"/><path d="m765.566 1327.97-765.566 279.21 1105.4-1017.879z" fill="#a93628" fill-rule="evenodd"/><path d="m525.621 742.531 552.019-208.551h-977.9955z" fill="#a93628" fill-rule="evenodd"/></g></svg>